<svg width="74" height="78" viewBox="0 0 74 78" fill="none" xmlns="http://www.w3.org/2000/svg">
<path d="M14.3489 7.1238C18.0037 4.58544 21.9154 9.24546 26.2079 8.07251C31.3188 6.67593 31.3531 -0.274756 36.6438 0.00841185C41.2684 0.25593 41.7925 5.5034 46.131 7.1238C50.9932 8.9398 55.9512 4.6894 59.8874 8.07251C63.2649 10.9755 60.3283 14.7601 62.7335 18.5084C65.6554 23.062 72.4302 21.7743 73.6438 27.0469C74.7089 31.6742 69.3746 33.6832 69.3746 38.4315C69.3746 43.1798 74.908 46.1879 73.6438 50.7648C72.3417 55.479 66.5743 53.4619 63.6823 57.4059C60.6683 61.5161 63.334 67.633 58.9387 70.2135C55.261 72.3728 52.1789 68.7587 48.0284 69.7392C42.5779 71.0267 42.2283 77.7521 36.6438 77.3289C31.7671 76.9594 31.3604 71.1652 26.6823 69.7392C22.2487 68.3877 18.1733 72.3577 14.3489 69.7392C10.482 67.0915 13.5868 62.7555 11.0284 58.8289C8.01148 54.1986 1.25302 55.2248 0.118152 49.8161C-0.856912 45.169 4.52766 43.1777 4.38738 38.4315C4.25729 34.0301 -0.596331 31.8662 0.118155 27.5212C1.01489 22.068 8.11635 23.6798 11.0284 18.9828C13.4687 15.0466 10.5451 9.76562 14.3489 7.1238Z" fill="#EF865A"/>
</svg>
