<svg width="79" height="63" viewBox="0 0 79 63" fill="none" xmlns="http://www.w3.org/2000/svg">
<path d="M0.5 0.0083776L17.1434 0L19.1503 31.5175H20.2672L22.2782 0.0111701H39L34.5681 31.5175L39 63L22.2039 62.9799L20.1929 35.2873L19.1503 35.2763L17.1434 62.9716L0.5 63L4.97035 31.5087L0.5 0.0083776Z" fill="#FAFAFA"/>
<path fill-rule="evenodd" clip-rule="evenodd" d="M78.5 52.515V52.5001C78.5 50.4923 72.5356 14.6136 71.695 10.4999C70.8544 6.38625 67.652 0 55.7235 0H40V63H62.5282C78.5004 63 78.5 54.5491 78.5 52.515ZM55.6838 52.5501V10.5098H57.0046L60.207 52.6026L55.6838 52.5501Z" fill="#FAFAFA"/>
</svg>
